<?xml version="1.0" encoding="utf-8"?>
<!-- Generator: $$$/GeneralStr/196=Adobe Illustrator 27.6.0, SVG Export Plug-In . SVG Version: 6.00 Build 0)  -->
<svg version="1.1" xmlns="http://www.w3.org/2000/svg" xmlns:xlink="http://www.w3.org/1999/xlink" x="0px" y="0px"
	 viewBox="0 0 162 188.9" style="enable-background:new 0 0 162 188.9;" xml:space="preserve">
<style type="text/css">
	.st0{display:none;}
	.st1{display:inline;fill:#606060;}
	.st2{fill:url(#Rectangle_3419_00000155836542378614768640000004009965460732094353_);}
	.st3{fill:#FFFFFF;}
</style>
<g id="Calque_2" class="st0">
	<rect class="st1" width="162" height="188.9"/>
</g>
<g id="Calque_1">
	
		<linearGradient id="Rectangle_3419_00000123440351106604843090000017106870664546270653_" gradientUnits="userSpaceOnUse" x1="17.3" y1="92.85" x2="143" y2="92.85">
		<stop  offset="0" style="stop-color:#297DD8"/>
		<stop  offset="1" style="stop-color:#23A2E3"/>
	</linearGradient>
	<path id="Rectangle_3419" style="fill:url(#Rectangle_3419_00000123440351106604843090000017106870664546270653_);" d="M42.1,30
		h76.1c13.7,0,24.8,11.1,24.8,24.8v76.1c0,13.7-11.1,24.8-24.8,24.8H42.1c-13.7,0-24.8-11.1-24.8-24.8V54.8
		C17.3,41.1,28.4,30,42.1,30z"/>
	<g>
		<path class="st3" d="M106.1,47.5h11.4L97.9,94.1H87.8l-7.9-20l-7.7,20H62L42.4,47.5h11.3l14,35.3l5.5-15.2L65,47.6h10l4.9,14.2
			l4.9-14.2h10l-8.2,19.9l5.6,15.2L106.1,47.5z"/>
	</g>
	<g>
		<path class="st3" d="M54.2,140.6H42.8l19.7-46.6h10.1l7.9,20l7.7-20h10.2l19.6,46.6h-11.3l-14-35.3l-5.5,15.2l8.2,19.9h-10
			l-4.9-14.2l-4.9,14.2h-10l8.2-19.9l-5.6-15.2L54.2,140.6z"/>
	</g>
</g>
</svg>
